# xmcd
#
# Track frame offsets: 
#        150
#        20899
#        48529
#        65862
#        81513
#        102514
#        121459
#        140216
#        163626
#        181659
#        199230
#        213532
#        233863
#
# Disc length: 3323 seconds
#
# Revision: 0
# Processed by: cddbd v1.5.1PL0 Copyright (c) Steve Scherf et al.
# Submitted via: ExactAudioCopy v0.95a5
#
DISCID=ce0cf90d
DTITLE=Danny Rhodes and the Messengers - Welcome to the Night
DYEAR=2002
DGENRE=Blues
TTITLE0=Way Past Midnite
TTITLE1=Do Your Business
TTITLE2=Meadowlark
TTITLE3=Two Tons of Love
TTITLE4=Baby, Please Don't Go
TTITLE5=O' Louisian'
TTITLE6=Your Kinda Love
TTITLE7=(You cant' Make) the Sun Go Down
TTITLE8=Dark Side of Heaven
TTITLE9=Got My Baby Back Again
TTITLE10=Mississippi Pipeline Blues
TTITLE11=Brother, Brother
TTITLE12=Turn It Up
EXTD=
EXTT0=
EXTT1=
EXTT2=
EXTT3=
EXTT4=
EXTT5=
EXTT6=
EXTT7=
EXTT8=
EXTT9=
EXTT10=
EXTT11=
EXTT12=
PLAYORDER=
